<?xml version="1.0" encoding="utf-8"?>
<!-- Generator: Adobe Illustrator 16.0.4, SVG Export Plug-In . SVG Version: 6.00 Build 0)  -->
<!DOCTYPE svg PUBLIC "-//W3C//DTD SVG 1.1//EN" "http://www.w3.org/Graphics/SVG/1.1/DTD/svg11.dtd">
<svg version="1.1" id="Layer_1" xmlns="http://www.w3.org/2000/svg" xmlns:xlink="http://www.w3.org/1999/xlink" x="0px" y="0px"
	 width="2048px" height="2048px" viewBox="0 0 2048 2048" enable-background="new 0 0 2048 2048" xml:space="preserve">
<polygon fill="#EBF0F3" points="1362.292,0 259.733,0 259.733,2048 1788.267,2048 1788.267,425.975 "/>
<polygon fill="#D5D6DB" points="1362.292,425.975 1788.267,425.975 1362.292,0 "/>
<polygon fill="#E1E6E9" points="1788.267,425.975 1362.292,425.975 1788.267,721.246 "/>
<g>
	<path fill="#F6C358" d="M656.667,520.546l0.179,0.116l0,0v-0.158l0.079,0.108l0.096-0.062v-0.004l0.034-0.042v0.021l67.116-44.851
		l0.009,0.005v-74.334c-5.08,3.496-9.95,7.283-14.525,11.417c-29.45,26.625-58.334,22.062-58.334,22.062
		c-17.616,0.467-42.712-17.583-53.416-25.987c-2.721-2.143-5.517-4.184-8.388-6.121v72.963l0.004-0.005L656.667,520.546z"/>
	<polygon fill="#F6C358" points="656.842,494.221 656.846,494.225 656.846,494.217 656.846,494.217 635.129,523.792 
		635.129,523.792 	"/>
</g>
<path d="M769.066,322.125c0,0,3.88-26.204,17.301-47.725c3.258-5.225,5.041-11.233,5.041-17.392v-67.729
	c0,0-4.229-33.213-36.833-41.062c0,0,13.283-28.279-21.134-34.971H606.638l0,0c-46.351,0-83.93,37.579-83.93,83.929v49.759
	c0,10.779,3.608,21.271,10.358,29.679c5.312,6.613,10.829,17.013,11.68,32.062"/>
<path fill="#FCD462" d="M651.316,448.925c0,0,28.884,4.562,58.334-22.062c4.574-4.133,9.445-7.921,14.524-11.416
	c0.5-0.347,0.992-0.704,1.492-1.042c13.042-8.759,38.087-33.042,43.396-92.279v-78.5c0,0-3.021-27.779-32.608-38.646l-43.975-15.438
	c-8.2-2.879-17.146-2.767-25.271,0.321c-9.112,3.458-21.142,7.934-28.708,10.363c-3.629,1.163-7.408,1.737-11.221,1.737H585.5
	c0,0-32.608,4.225-40.758,40.754v65.958v15.259c0,0,1.416,64.154,43.896,92.271c0.296,0.196,0.579,0.408,0.879,0.612
	c2.867,1.938,5.663,3.979,8.388,6.121C608.6,431.342,633.7,449.392,651.316,448.925z"/>
<g>
	<polygon fill="#D5D6DB" points="678.559,518.046 664.812,537.783 677.509,617.787 709.32,559.946 	"/>
	<polygon fill="#D5D6DB" points="637.233,622.713 651.15,535.009 636.017,513.275 602.3,559.191 	"/>
	<polygon fill="#D5D6DB" points="635.129,523.792 634.213,525.042 656.846,494.333 656.846,494.225 656.842,494.221 	"/>
</g>
<g>
	<polygon fill="#E56353" points="678.941,610.305 668.154,542.309 679.833,525.533 679.833,525.533 656.846,494.217 
		656.846,494.225 656.846,494.333 634.213,525.042 633.963,525.379 633.958,525.384 633.958,525.384 645.746,542.309 
		634.908,610.604 634.908,610.604 656.846,650.487 678.941,610.312 	"/>
	<polygon fill="#E56353" points="656.979,650.733 659.07,648.634 656.912,650.612 	"/>
	<polygon fill="#E56353" points="656.775,650.612 654.617,648.634 656.713,650.733 	"/>
	<polygon fill="#E56353" points="656.746,650.767 656.846,650.867 656.941,650.767 656.846,650.675 656.846,650.675 
		656.842,650.675 	"/>
	<polygon fill="#E56353" points="657.055,494.05 657.021,494.092 657.055,494.075 	"/>
	<polygon fill="#E56353" points="656.846,494.05 656.846,494.213 656.925,494.158 	"/>
</g>
<g>
	<polygon fill="#E1E6E9" points="657.055,494.075 657.021,494.092 657.021,494.096 656.925,494.158 656.846,494.213 
		656.846,494.213 656.846,494.217 656.846,494.217 656.846,494.217 679.833,525.533 705.987,561.146 760.4,462.213 724.175,449.225 
		724.171,449.225 	"/>
	<polygon fill="#E1E6E9" points="633.958,525.384 633.963,525.379 635.129,523.792 656.846,494.217 656.846,494.217 
		656.846,494.213 656.667,494.096 589.517,449.225 589.517,449.225 553.287,462.213 607.704,561.146 	"/>
</g>
<g>
	<path fill="#3A556A" d="M656.979,650.733l0.075,0.134h28.32h216.334c15.487,0,27.271-13.896,24.741-29.176l-12.188-73.596
		c-3.288-19.85-17.038-36.379-35.958-43.225L760.4,462.213"/>
	<polygon fill="#3A556A" points="656.941,650.767 656.846,650.867 656.846,650.867 657.055,650.867 	"/>
</g>
<g>
	<polygon fill="#2F4859" points="678.941,610.312 656.846,650.487 656.846,650.487 656.912,650.612 659.07,648.634 765.833,550.975 
		752.55,525.612 791.717,525.009 760.4,462.213 705.987,561.146 	"/>
	<polygon fill="#2F4859" points="656.746,650.767 656.842,650.675 656.846,650.675 656.775,650.612 656.713,650.733 	"/>
</g>
<path fill="#3A556A" d="M656.746,650.763l-0.033-0.029L553.287,462.213l-117.903,42.658c-18.921,6.846-32.671,23.371-35.959,43.221
	l-12.188,73.604c-2.529,15.274,9.259,29.171,24.746,29.171h216.542h16.721h0.208h11.392h0.004L656.746,650.763z"/>
<polygon fill="#2F4859" points="656.979,650.733 656.912,650.612 656.846,650.487 656.846,650.487 634.908,610.604 607.704,561.146 
	553.287,462.213 521.975,525.009 561.138,525.612 547.854,550.975 654.617,648.634 656.775,650.612 656.846,650.675 
	656.846,650.675 656.941,650.767 657.055,650.867 "/>
<g>
	<rect x="384.642" y="817.708" fill="#D5D6DB" width="1278.571" height="37.226"/>
	<rect x="384.642" y="980.546" fill="#D5D6DB" width="1278.571" height="37.225"/>
	<rect x="384.642" y="1143.254" fill="#D5D6DB" width="1278.571" height="37.226"/>
	<rect x="384.642" y="1306.025" fill="#D5D6DB" width="1278.571" height="37.225"/>
	<rect x="384.642" y="1468.737" fill="#D5D6DB" width="1278.571" height="37.226"/>
	<rect x="384.642" y="1631.575" fill="#D5D6DB" width="1278.571" height="37.225"/>
	<rect x="384.642" y="1794.134" fill="#D5D6DB" width="1043.775" height="37.225"/>
</g>
</svg>
