<?xml version="1.0" encoding="utf-8"?>
<!-- Generator: Adobe Illustrator 16.0.4, SVG Export Plug-In . SVG Version: 6.00 Build 0)  -->
<!DOCTYPE svg PUBLIC "-//W3C//DTD SVG 1.1//EN" "http://www.w3.org/Graphics/SVG/1.1/DTD/svg11.dtd">
<svg version="1.1" id="Layer_1" xmlns="http://www.w3.org/2000/svg" xmlns:xlink="http://www.w3.org/1999/xlink" x="0px" y="0px"
	 width="768px" height="1024px" viewBox="0 0 768 1024" enable-background="new 0 0 768 1024" xml:space="preserve">
<rect x="407.201" y="165.443" transform="matrix(0.4957 -0.8685 0.8685 0.4957 40.1779 471.7769)" fill="#F7B239" width="38.259" height="71.697"/>
<polygon fill="#E0B08C" points="371.176,191.842 447.187,237.072 276.561,536.058 199.756,492.238 219.499,457.641 240.393,421.03 
	255.834,393.972 280.348,351 317.593,285.756 349.377,230.041 363.011,206.169 "/>
<path fill="#F7B239" d="M199.756,492.238l76.805,43.82c-18.066,31.661-20.764,69.81-7.343,103.704
	c10.327,26.067,10.171,53.55-2.922,76.491c-26.63,46.666-96.665,56.841-156.438,22.728c-59.775-34.112-86.64-99.585-60.021-146.243
	c13.092-22.945,36.675-37.061,64.38-41.44C150.212,545.613,181.689,523.896,199.756,492.238z"/>
<g>
	<path fill="#FFFFFF" d="M87.648,688.439c-3.506,0.958-7.393-0.283-9.646-3.409c-5.038-6.98-9.172-14.368-12.286-21.961
		c-8.978-21.876-8.525-43.377,1.269-60.547c8.204-14.378,22.239-24.626,40.583-29.642c3.128-0.857,6.4-1.555,9.725-2.081
		c5.155-0.816,10.302-1.921,15.3-3.287c16.082-4.396,31.057-11.526,44.512-21.196c4.025-2.889,9.632-1.973,12.527,2.054
		c2.891,4.023,1.975,9.631-2.051,12.523c-15.197,10.918-32.106,18.972-50.254,23.934c-5.633,1.538-11.429,2.784-17.229,3.7
		c-2.676,0.422-5.3,0.983-7.796,1.665c-13.654,3.733-23.933,11.073-29.727,21.226c-6.997,12.261-7.087,28.185-0.254,44.835
		c2.581,6.287,6.025,12.439,10.241,18.274c2.9,4.021,1.992,9.631-2.03,12.529C89.633,687.705,88.656,688.164,87.648,688.439z"/>
	<path fill="#FFFFFF" d="M206.159,543.443c-2.273,0.62-4.753,0.308-6.808-0.854c-0.515-0.295-0.992-0.633-1.437-1.033
		c-0.439-0.378-0.842-0.812-1.203-1.272s-0.672-0.961-0.938-1.481c-0.271-0.533-0.481-1.084-0.636-1.649
		c-0.155-0.566-0.251-1.147-0.288-1.73c-0.038-0.587-0.027-1.184,0.051-1.764c0.076-0.58,0.204-1.161,0.388-1.705
		c0.185-0.562,0.417-1.107,0.715-1.611c1.458-2.556,4.208-4.3,7.168-4.502c0.582-0.048,1.171-0.021,1.75,0.056
		c0.587,0.062,1.157,0.19,1.719,0.385c0.559,0.184,1.095,0.421,1.609,0.713c0.5,0.287,0.993,0.637,1.434,1.022
		c0.438,0.377,0.842,0.812,1.203,1.272c0.361,0.459,0.674,0.969,0.942,1.489c0.266,0.524,0.467,1.079,0.622,1.644
		c0.625,2.289,0.312,4.766-0.853,6.82c-0.296,0.503-0.636,0.979-1.022,1.434c-0.387,0.438-0.812,0.843-1.282,1.205
		c-0.463,0.349-0.958,0.67-1.483,0.927C207.287,543.074,206.725,543.289,206.159,543.443z"/>
	<path fill="#FFFFFF" d="M415.975,202.807c-0.562,0.154-1.146,0.251-1.729,0.287c-0.585,0.046-1.175,0.023-1.762-0.041
		c-0.579-0.077-1.148-0.208-1.705-0.389c-0.562-0.194-1.109-0.429-1.613-0.725c-2.055-1.164-3.585-3.139-4.21-5.425
		c-0.154-0.565-0.251-1.146-0.292-1.743c-0.032-0.575-0.024-1.172,0.055-1.752c0.067-0.577,0.204-1.162,0.389-1.707
		c0.187-0.559,0.418-1.106,0.715-1.609c0.282-0.509,0.634-0.993,1.02-1.444c0.387-0.441,0.812-0.841,1.271-1.202
		c0.474-0.356,0.969-0.678,1.496-0.931c1.057-0.536,2.198-0.848,3.381-0.924c0.584-0.049,1.17-0.023,1.749,0.044
		c0.578,0.078,1.159,0.202,1.72,0.385c0.559,0.195,1.095,0.433,1.611,0.726c2.044,1.166,3.579,3.151,4.199,5.426
		c0.156,0.564,0.251,1.147,0.302,1.741c0.031,0.575,0.021,1.171-0.056,1.753c-0.079,0.578-0.203,1.158-0.39,1.706
		c-0.178,0.569-0.427,1.108-0.714,1.608c-0.293,0.514-0.632,0.993-1.018,1.444c-0.388,0.441-0.826,0.845-1.284,1.206
		c-0.464,0.352-0.958,0.671-1.482,0.928C417.094,202.44,416.541,202.651,415.975,202.807z"/>
</g>
<g>
	<path fill="#333333" d="M111.076,655.499c-4.305-2.455-9.786-0.958-12.243,3.349c-2.456,4.305-0.958,9.786,3.346,12.239
		l70.03,39.966c2.152,1.228,4.598,1.471,6.815,0.864c2.214-0.607,4.2-2.058,5.428-4.21c2.457-4.305,0.959-9.787-3.345-12.241
		L111.076,655.499z"/>
	<path fill="#333333" d="M132.875,617.301c-4.306-2.456-9.786-0.956-12.243,3.348c-2.458,4.303-0.959,9.786,3.346,12.241
		l70.03,39.961c2.154,1.229,4.602,1.472,6.815,0.866c2.215-0.605,4.2-2.058,5.428-4.211c2.458-4.305,0.959-9.787-3.346-12.243
		L132.875,617.301z"/>
	<path fill="#333333" d="M148.317,590.245c-4.306-2.456-9.786-0.959-12.244,3.349c-2.455,4.302-0.958,9.784,3.346,12.241
		l70.029,39.963c2.152,1.226,4.601,1.469,6.815,0.861c2.214-0.604,4.2-2.055,5.427-4.206c2.458-4.309,0.959-9.788-3.345-12.247
		L148.317,590.245z"/>
	<path fill="#333333" d="M471.401,194.658l-62.277-35.544c-2.071-1.18-4.519-1.49-6.817-0.863c-2.298,0.628-4.248,2.142-5.428,4.209
		l-14.583,25.556l-6.525-3.883c-2.066-1.233-4.545-1.579-6.874-0.964c-0.027,0.007-0.053,0.015-0.079,0.021
		c-2.295,0.628-4.247,2.14-5.429,4.209l-3.725,6.529l-22.448-12.811c-4.306-2.456-9.785-0.959-12.242,3.346
		c-2.456,4.306-0.958,9.787,3.346,12.243l22.448,12.809l-4.729,8.286l-22.446-12.808c-4.306-2.457-9.786-0.958-12.242,3.346
		c-2.457,4.305-0.959,9.787,3.346,12.242l22.447,12.81l-22.894,40.115l-22.447-12.807c-4.305-2.457-9.785-0.959-12.242,3.346
		c-2.457,4.303-0.959,9.787,3.347,12.242l22.445,12.808l-28.343,49.666l-22.443-12.808c-4.307-2.456-9.787-0.959-12.243,3.345
		c-2.458,4.306-0.959,9.786,3.346,12.242l22.447,12.812l-15.631,27.382l-22.444-12.809c-4.306-2.456-9.786-0.957-12.242,3.345
		c-2.458,4.305-0.959,9.788,3.346,12.244l22.447,12.81l-6.545,11.467l-22.444-12.81c-4.306-2.456-9.786-0.958-12.243,3.348
		c-2.456,4.302-0.958,9.785,3.347,12.241l22.446,12.809l-11.994,21.016l-22.444-12.809c-4.306-2.456-9.786-0.958-12.242,3.348
		c-2.458,4.305-0.958,9.786,3.346,12.241l22.446,12.81l-15.293,26.799c-16.802,29.444-45.647,49.368-79.15,54.657
		c-31.621,4.99-56.745,21.271-70.768,45.841c-27.847,48.803-2.838,116.191,55.687,153.833l-2.94,5.151
		c-2.458,4.305-0.96,9.786,3.346,12.243c2.152,1.229,4.599,1.469,6.815,0.863c2.215-0.604,4.2-2.057,5.427-4.209l2.942-5.153
		c34.59,17.38,71.828,21.152,102.857,12.669c24.75-6.766,45.552-21.322,57.911-42.976c14.023-24.573,15.256-54.493,3.475-84.246
		c-12.485-31.532-10.008-66.503,6.794-95.946l190.381-333.614c1.182-2.066,1.489-4.519,0.863-6.813
		C474.982,197.788,473.467,195.835,471.401,194.658z M260.876,643.066c9.735,24.585,8.892,48.999-2.376,68.743
		c-24.134,42.29-88.822,50.982-144.199,19.379c-55.378-31.605-80.798-91.72-56.666-134.008c9.64-16.892,26.101-28.952,47.012-34.668
		c3.533-0.966,7.192-1.748,10.964-2.347c35.93-5.678,67.268-25.85,87.225-55.843l61.75,35.24
		C248.915,572.004,247.483,609.238,260.876,643.066z M273.217,523.821L212,488.887l162.446-284.655l60.582,36.048L273.217,523.821z
		 M444.643,223.434l-46.688-26.643l10.065-17.638l46.691,26.643L444.643,223.434z"/>
</g>
<path fill="#99673A" stroke="#FCFCFC" stroke-miterlimit="10" d="M335.455,695.412c-1.436,28.708,11.16,54.815,35.467,73.512
	c22.015,16.937,52.894,27.202,86.952,28.904c34.054,1.704,65.804-5.43,89.4-20.083c4.959-3.08,9.519-6.469,13.664-10.135
	c3.266,3.472,6.848,6.592,10.77,9.318c13.178,9.17,29.396,14.117,50.125,15.155c6.422,0.32,13.273,0.267,20.605-0.154
	c30.995-1.777,52.78-9.081,68.555-22.982c19.322-17.031,28.088-43.706,26.049-79.287c-1.859-32.454-15.062-105.86-33.67-130.465
	c-2.605-3.447-6.754-5.383-11.081-5.122l-126.553,7.25c-4.314,0.247-8.224,2.632-10.42,6.355
	c-6.378,10.808-10.934,29.548-13.979,50.149l-157.206-7.861c-3.106-0.155-6.162,0.811-8.615,2.722
	C350.977,631.81,336.789,668.779,335.455,695.412z M387.977,636.114l25.483,1.276c-1.482,3.74-2.822,7.621-4.015,11.628
	l-30.979-1.549C381.344,643.235,384.518,639.36,387.977,636.114z M422.446,666.537l33.473,1.675l-5.154,103.086
	c-2.089-0.215-4.177-0.467-6.26-0.76c-16.016-12.911-26.645-45.232-24.838-81.328C420.057,681.422,421.005,673.818,422.446,666.537z
	 M473.896,772.01c-2.101,0.082-4.204,0.128-6.306,0.131l5.156-103.087l33.474,1.675c0.709,7.389,0.895,15.047,0.505,22.834
	C504.921,729.663,491.122,760.76,473.896,772.01z M551.887,656.143l-30.978-1.55c-0.788-4.104-1.737-8.1-2.839-11.972l25.482,1.274
	C546.673,647.471,549.444,651.643,551.887,656.143z M503.539,653.724l-29.949-1.497l0.59-11.8l25.977,1.298
	C501.472,645.549,502.603,649.562,503.539,653.724z M426.814,649.888c1.35-4.049,2.873-7.927,4.562-11.603l25.976,1.3l-0.589,11.8
	L426.814,649.888z M574.86,586.764l25.648-1.469c-0.29,6.453-0.459,14.127-0.534,22.529l-31.104,1.782
	C570.562,600.603,572.562,592.688,574.86,586.764z M619.333,717.265c-1.116-19.419-2.404-59.732-2.557-93.523l31.942-1.832
	c3.706,33.589,7.032,73.784,8.145,93.206c1.676,29.235,0.119,43.153-2.12,49.608c-4.318,0.6-8.902,1.045-13.787,1.326
	c-4.887,0.28-9.494,0.36-13.852,0.257C624.143,760.153,621.008,746.502,619.333,717.265z M616.806,606.863
	c0.078-8.601,0.264-16.31,0.588-22.534l26.212-1.502c1.03,6.146,2.096,13.782,3.156,22.316L616.806,606.863z M694.7,602.397
	l-31.108,1.784c-1.032-8.343-2.078-15.946-3.104-22.322l25.65-1.47C689.097,586.012,691.988,593.644,694.7,602.397z
	 M693.853,749.501c-5.436,4.79-12.4,8.528-20.994,11.267c1.792-10.91,2.011-25.97,0.827-46.617
	c-1.14-19.902-4.408-59.447-8.139-93.205l33.767-1.934c6.189,24.709,10.773,53.369,11.851,72.13
	C712.745,718.752,707.083,737.841,693.853,749.501z M577.827,747.628c7.215-11.787,11.354-25.14,12.074-39.486
	c1.172-23.492-6.809-55.974-24.152-78.048c0.145-1.158,0.286-2.31,0.437-3.454l33.764-1.932c0.149,33.964,1.42,73.623,2.562,93.523
	c1.181,20.643,3.117,35.582,6.146,46.214c-8.848-1.736-16.195-4.652-22.145-8.793C583.278,753.401,580.396,750.717,577.827,747.628z
	 M500.589,768.597c12.794-17.9,21.464-44.144,22.966-74.192c0.388-7.732,0.261-15.381-0.349-22.826l35.917,1.797
	c3.665,11.599,5.377,23.66,4.886,33.468C562.282,741.373,534.277,761.087,500.589,768.597z M361.344,696.707
	c0.489-9.808,3.397-21.639,8.2-32.813l35.918,1.796c-1.348,7.347-2.236,14.944-2.623,22.681
	c-1.503,30.044,4.502,57.021,15.449,76.109C385.517,753.648,359.618,731.24,361.344,696.707z"/>
<path fill="#D2E9FF" d="M669.812,398.076c-3.417-14.667-9.936-26.29-18.848-33.61c-3.596-2.951-7.552-5.138-11.728-6.551
	c5.493-3.773,8.935-6.967,9.323-7.335c2.203-2.077,2.46-5.493,0.593-7.876l-14.27-18.222c-1.028-1.313-2.564-2.125-4.227-2.236
	c-1.658-0.107-3.293,0.493-4.484,1.658c-8.956,8.757-17.806,14.031-26.417,15.784l12.618-13.653c2.075-2.244,2.075-5.71,0-7.954
	l-14.798-16.011c-1.108-1.2-2.669-1.88-4.304-1.88c-0.008,0-0.013,0-0.019,0c-1.641,0.004-3.204,0.697-4.312,1.91l-15.326,16.797
	c-2.117,2.321-2.029,5.896,0.198,8.108l12.597,12.512c-15.333-3.622-25.035-18.006-25.229-18.301
	c-1.638-2.507-4.903-3.378-7.572-2.012c-2.672,1.364-3.881,4.525-2.802,7.327c3.891,10.09,8.453,18.501,13.662,25.21
	c-5.043-5.261-11.072-8.927-17.901-10.795c-16.49-4.506-37.297,1.355-60.188,16.953c-1.283,0.875-2.169,2.227-2.457,3.753
	c-0.288,1.528,0.039,3.108,0.916,4.392l11.099,16.274c1.759,2.578,5.227,3.327,7.892,1.701c9.602-5.848,32.509-15.89,38.035-7.608
	c1.553,2.324,1.789,4.658,0.727,7.132c-1.97,4.587-9.1,10.355-23.206,12.792c-2.978,0.515-5.075,3.207-4.847,6.218l2.114,27.823
	c0.226,2.971,2.658,5.301,5.638,5.413c4.455,0.167,17.15,2.166,22.299,9.303c2.748,3.809,3.176,8.788,1.301,15.223
	c-0.69,2.37-2.812,9.58-14.489,9.272c-9.408-0.259-21.171-5.278-31.469-13.436c-11.069-8.768-18.876-20.052-21.416-30.959
	c-0.687-2.951-3.507-4.89-6.516-4.475c-3.002,0.419-5.189,3.057-5.045,6.085c0.037,0.801,1.038,19.869,9.47,39.202
	c11.608,26.596,31.544,40.654,57.652,40.654c16.934,0,29.647-5.44,37.783-16.173c13.125-17.306,9.949-43.289,7.72-54.6
	c9.861-3.553,30.568-13.158,43.537-34.394c2.366-3.881,5.618-5.487,9.161-4.523c5.225,1.42,10.945,8.595,11.159,20.991
	c0.297,17.325-8.412,27.828-16.662,31.88c-6.32,3.106-12.886,2.922-17.132-0.475c-3.968-3.171-6.649-9.667-7.346-11.887
	c-0.824-2.675-3.418-4.396-6.203-4.11c-2.782,0.287-4.972,2.5-5.233,5.286c-0.103,1.084-2.344,26.78,10.26,41.302
	c5.262,6.06,12.211,9.34,20.658,9.743c14.681,0.688,27.238-4.679,36.306-15.558C672.28,457.107,676.772,427.961,669.812,398.076z
	 M593.299,314.71l6.792,7.348l-6.998,7.57l-7.031-6.982L593.299,314.71z M588.811,351.812c13.631,1.505,27.312-3.578,40.752-15.116
	l6.863,8.764c-7.695,5.941-25.072,17.219-42.058,13.36c-6.104-1.387-11.691-4.659-16.735-9.786
	C581.063,350.377,584.795,351.369,588.811,351.812z M591.772,370.25c2.776,0.631,5.533,0.948,8.258,1.037
	c-2.01,3.021-3.783,6.254-5.536,9.453c-6.488,11.847-12.698,23.189-30.388,26.492c4.497-4.188,8.73-9.479,11.119-15.832
	c3.15-8.372,2.648-17.088-1.489-25.903c-1.65-3.514-3.558-6.69-5.689-9.533C574.958,363.448,582.883,368.231,591.772,370.25z
	 M486.649,460.095c13.21,12.618,30.395,20.827,44.435,21.208c13.197,0.362,22.679-6.097,26.062-17.713
	c2.913-10.012,1.877-18.558-3.081-25.399c-6.747-9.305-19.057-12.491-26.094-13.571l-1.357-17.832
	c13.419-3.33,23.032-9.966,26.748-18.622c2.637-6.14,2.014-12.626-1.75-18.265c-10.925-16.364-37.667-4.656-49.023,1.362
	l-4.699-6.89c17.922-11.213,33.604-15.4,45.588-12.124c8.444,2.307,15.055,8.442,19.649,18.23
	c2.774,5.912,3.148,11.393,1.143,16.757c-4.922,13.16-22.332,20.977-22.498,21.05c-2.454,1.072-3.869,3.675-3.435,6.319
	c0.435,2.644,2.604,4.655,5.275,4.889c18.093,1.576,32-1.403,42.503-9.11c9.206-6.756,14.229-15.924,18.66-24.014
	c5.458-9.966,9.189-16.163,16.775-17.923c17.167-3.979,31.283,8.391,36.847,32.285c6.051,25.981,2.394,51.849-9.317,65.902
	c-6.72,8.058-15.712,11.871-26.744,11.353c-5.186-0.25-9.226-2.114-12.347-5.699c-2.969-3.414-4.806-7.928-5.929-12.512
	c7.717,5.075,18.193,5.341,27.884,0.58c11.479-5.637,23.604-19.789,23.212-42.602c-0.317-18.542-10.175-29.482-19.803-32.101
	c-8.622-2.344-17.147,1.381-22.243,9.725c-14.545,23.825-41.582,30.784-41.842,30.849c-1.542,0.375-2.862,1.364-3.664,2.733
	c-0.803,1.367-1.015,3.006-0.59,4.536c0.091,0.321,8.8,32.412-4.509,49.926c-5.807,7.635-15.371,11.51-28.429,11.51
	C512.777,494.935,496.396,482.224,486.649,460.095z"/>
</svg>
